<svg width="405" height="252" viewBox="0 0 405 252" fill="none" xmlns="http://www.w3.org/2000/svg">
<g clip-path="url(#clip0_111_898)">
<mask id="mask0_111_898" style="mask-type:luminance" maskUnits="userSpaceOnUse" x="0" y="0" width="405" height="252">
<path d="M389.726 0H15C6.71573 0 0 6.71573 0 15V236.83C0 245.114 6.71573 251.83 15 251.83H389.726C398.01 251.83 404.726 245.114 404.726 236.83V15C404.726 6.71573 398.01 0 389.726 0Z" fill="white"/>
</mask>
<g mask="url(#mask0_111_898)">
<path d="M389.726 0H15C6.71573 0 0 6.71573 0 15V236.83C0 245.114 6.71573 251.83 15 251.83H389.726C398.01 251.83 404.726 245.114 404.726 236.83V15C404.726 6.71573 398.01 0 389.726 0Z" fill="white"/>
<g filter="url(#filter0_d_111_898)">
<path d="M418.306 193.369H-13.5784C-30.9148 193.369 -44.9688 207.423 -44.9688 224.759C-44.9688 242.096 -30.9148 256.15 -13.5784 256.15H418.306C435.642 256.15 449.696 242.096 449.696 224.759C449.696 207.423 435.642 193.369 418.306 193.369Z" fill="#333333"/>
<path d="M84.6135 212.355H88.1829L93.4387 227.378L98.6946 212.355H102.264L94.8721 232.816H92.0053L84.6135 212.355ZM82.6882 212.355H86.2436L86.8901 226.998V232.816H82.6882V212.355ZM100.634 212.355H104.203V232.816H99.9874V226.998L100.634 212.355ZM107 225.368V225.073C107 223.958 107.159 222.932 107.478 221.996C107.796 221.049 108.26 220.23 108.869 219.536C109.478 218.843 110.227 218.304 111.117 217.92C112.007 217.527 113.029 217.33 114.181 217.33C115.333 217.33 116.359 217.527 117.259 217.92C118.158 218.304 118.912 218.843 119.521 219.536C120.139 220.23 120.608 221.049 120.926 221.996C121.245 222.932 121.404 223.958 121.404 225.073V225.368C121.404 226.474 121.245 227.5 120.926 228.446C120.608 229.383 120.139 230.203 119.521 230.905C118.912 231.598 118.163 232.137 117.273 232.521C116.383 232.905 115.361 233.097 114.209 233.097C113.057 233.097 112.031 232.905 111.131 232.521C110.241 232.137 109.487 231.598 108.869 230.905C108.26 230.203 107.796 229.383 107.478 228.446C107.159 227.5 107 226.474 107 225.368ZM111.047 225.073V225.368C111.047 226.005 111.103 226.6 111.216 227.153C111.328 227.706 111.506 228.193 111.75 228.615C112.003 229.027 112.331 229.35 112.733 229.584C113.136 229.818 113.628 229.936 114.209 229.936C114.771 229.936 115.254 229.818 115.657 229.584C116.059 229.35 116.383 229.027 116.626 228.615C116.87 228.193 117.048 227.706 117.16 227.153C117.282 226.6 117.343 226.005 117.343 225.368V225.073C117.343 224.455 117.282 223.874 117.16 223.331C117.048 222.778 116.865 222.291 116.612 221.869C116.369 221.438 116.045 221.101 115.642 220.857C115.24 220.614 114.752 220.492 114.181 220.492C113.609 220.492 113.122 220.614 112.719 220.857C112.326 221.101 112.003 221.438 111.75 221.869C111.506 222.291 111.328 222.778 111.216 223.331C111.103 223.874 111.047 224.455 111.047 225.073ZM127.939 220.928V232.816H123.892V217.611H127.7L127.939 220.928ZM132.52 217.513L132.45 221.265C132.253 221.237 132.014 221.213 131.733 221.195C131.461 221.166 131.213 221.152 130.988 221.152C130.417 221.152 129.92 221.227 129.499 221.377C129.086 221.518 128.74 221.729 128.459 222.01C128.187 222.291 127.981 222.633 127.84 223.036C127.709 223.438 127.634 223.897 127.616 224.413L126.801 224.16C126.801 223.176 126.899 222.272 127.096 221.448C127.292 220.614 127.578 219.888 127.953 219.269C128.337 218.651 128.805 218.173 129.358 217.836C129.911 217.499 130.543 217.33 131.255 217.33C131.48 217.33 131.71 217.349 131.944 217.386C132.178 217.414 132.37 217.457 132.52 217.513ZM138.479 220.534V238.662H134.431V217.611H138.183L138.479 220.534ZM148.105 225.045V225.34C148.105 226.446 147.974 227.472 147.711 228.418C147.458 229.364 147.084 230.188 146.587 230.891C146.091 231.584 145.472 232.128 144.732 232.521C144.001 232.905 143.158 233.097 142.203 233.097C141.275 233.097 140.469 232.91 139.785 232.535C139.102 232.161 138.525 231.636 138.057 230.961C137.598 230.278 137.228 229.486 136.947 228.586C136.666 227.687 136.45 226.722 136.3 225.692V224.919C136.45 223.813 136.666 222.801 136.947 221.883C137.228 220.956 137.598 220.155 138.057 219.48C138.525 218.796 139.097 218.267 139.771 217.892C140.455 217.517 141.256 217.33 142.174 217.33C143.139 217.33 143.987 217.513 144.718 217.878C145.458 218.243 146.077 218.768 146.573 219.452C147.079 220.136 147.458 220.951 147.711 221.897C147.974 222.843 148.105 223.893 148.105 225.045ZM144.044 225.34V225.045C144.044 224.399 143.987 223.804 143.875 223.26C143.772 222.708 143.603 222.225 143.369 221.813C143.144 221.401 142.844 221.082 142.47 220.857C142.104 220.623 141.659 220.506 141.135 220.506C140.582 220.506 140.109 220.595 139.715 220.773C139.331 220.951 139.017 221.209 138.774 221.546C138.53 221.883 138.347 222.286 138.226 222.754C138.104 223.223 138.029 223.752 138.001 224.342V226.296C138.048 226.989 138.179 227.612 138.394 228.165C138.61 228.708 138.942 229.139 139.392 229.458C139.842 229.776 140.432 229.936 141.163 229.936C141.697 229.936 142.146 229.818 142.512 229.584C142.877 229.341 143.172 229.008 143.397 228.586C143.631 228.165 143.795 227.678 143.889 227.125C143.992 226.572 144.044 225.977 144.044 225.34ZM154.569 211.231V232.816H150.522V211.231H154.569ZM153.993 224.68H152.883C152.892 223.621 153.033 222.647 153.304 221.757C153.576 220.857 153.965 220.08 154.471 219.424C154.977 218.759 155.581 218.243 156.284 217.878C156.996 217.513 157.783 217.33 158.645 217.33C159.394 217.33 160.073 217.438 160.682 217.653C161.301 217.859 161.83 218.197 162.27 218.665C162.72 219.124 163.067 219.728 163.31 220.478C163.554 221.227 163.676 222.136 163.676 223.204V232.816H159.6V223.176C159.6 222.502 159.502 221.972 159.305 221.588C159.118 221.195 158.841 220.918 158.476 220.759C158.12 220.59 157.68 220.506 157.155 220.506C156.574 220.506 156.078 220.614 155.665 220.829C155.262 221.045 154.939 221.344 154.696 221.729C154.452 222.103 154.274 222.544 154.162 223.05C154.049 223.555 153.993 224.099 153.993 224.68ZM166.107 225.368V225.073C166.107 223.958 166.266 222.932 166.584 221.996C166.903 221.049 167.367 220.23 167.976 219.536C168.585 218.843 169.334 218.304 170.224 217.92C171.114 217.527 172.135 217.33 173.288 217.33C174.44 217.33 175.466 217.527 176.365 217.92C177.265 218.304 178.019 218.843 178.628 219.536C179.246 220.23 179.715 221.049 180.033 221.996C180.352 222.932 180.511 223.958 180.511 225.073V225.368C180.511 226.474 180.352 227.5 180.033 228.446C179.715 229.383 179.246 230.203 178.628 230.905C178.019 231.598 177.269 232.137 176.379 232.521C175.489 232.905 174.468 233.097 173.316 233.097C172.164 233.097 171.138 232.905 170.238 232.521C169.348 232.137 168.594 231.598 167.976 230.905C167.367 230.203 166.903 229.383 166.584 228.446C166.266 227.5 166.107 226.474 166.107 225.368ZM170.154 225.073V225.368C170.154 226.005 170.21 226.6 170.323 227.153C170.435 227.706 170.613 228.193 170.857 228.615C171.11 229.027 171.437 229.35 171.84 229.584C172.243 229.818 172.735 229.936 173.316 229.936C173.878 229.936 174.36 229.818 174.763 229.584C175.166 229.35 175.489 229.027 175.733 228.615C175.977 228.193 176.155 227.706 176.267 227.153C176.389 226.6 176.45 226.005 176.45 225.368V225.073C176.45 224.455 176.389 223.874 176.267 223.331C176.155 222.778 175.972 222.291 175.719 221.869C175.475 221.438 175.152 221.101 174.749 220.857C174.346 220.614 173.859 220.492 173.288 220.492C172.716 220.492 172.229 220.614 171.826 220.857C171.433 221.101 171.11 221.438 170.857 221.869C170.613 222.291 170.435 222.778 170.323 223.331C170.21 223.874 170.154 224.455 170.154 225.073ZM187.27 211.231V232.816H183.209V211.231H187.27ZM189.969 225.368V225.073C189.969 223.958 190.128 222.932 190.446 221.996C190.765 221.049 191.229 220.23 191.838 219.536C192.447 218.843 193.196 218.304 194.086 217.92C194.976 217.527 195.997 217.33 197.15 217.33C198.302 217.33 199.328 217.527 200.227 217.92C201.127 218.304 201.881 218.843 202.49 219.536C203.108 220.23 203.577 221.049 203.895 221.996C204.214 222.932 204.373 223.958 204.373 225.073V225.368C204.373 226.474 204.214 227.5 203.895 228.446C203.577 229.383 203.108 230.203 202.49 230.905C201.881 231.598 201.131 232.137 200.241 232.521C199.351 232.905 198.33 233.097 197.178 233.097C196.025 233.097 195 232.905 194.1 232.521C193.21 232.137 192.456 231.598 191.838 230.905C191.229 230.203 190.765 229.383 190.446 228.446C190.128 227.5 189.969 226.474 189.969 225.368ZM194.016 225.073V225.368C194.016 226.005 194.072 226.6 194.185 227.153C194.297 227.706 194.475 228.193 194.719 228.615C194.972 229.027 195.299 229.35 195.702 229.584C196.105 229.818 196.597 229.936 197.178 229.936C197.74 229.936 198.222 229.818 198.625 229.584C199.028 229.35 199.351 229.027 199.595 228.615C199.839 228.193 200.017 227.706 200.129 227.153C200.251 226.6 200.312 226.005 200.312 225.368V225.073C200.312 224.455 200.251 223.874 200.129 223.331C200.017 222.778 199.834 222.291 199.581 221.869C199.337 221.438 199.014 221.101 198.611 220.857C198.208 220.614 197.721 220.492 197.15 220.492C196.578 220.492 196.091 220.614 195.688 220.857C195.295 221.101 194.972 221.438 194.719 221.869C194.475 222.291 194.297 222.778 194.185 223.331C194.072 223.874 194.016 224.455 194.016 225.073ZM216.487 217.611H220.154V232.31C220.154 233.697 219.845 234.873 219.227 235.838C218.618 236.812 217.765 237.548 216.669 238.044C215.573 238.55 214.299 238.803 212.847 238.803C212.21 238.803 211.535 238.719 210.823 238.55C210.121 238.381 209.446 238.119 208.8 237.763C208.163 237.407 207.629 236.957 207.198 236.414L208.982 234.025C209.451 234.568 209.994 234.99 210.612 235.29C211.231 235.599 211.915 235.753 212.664 235.753C213.395 235.753 214.013 235.618 214.519 235.346C215.025 235.084 215.414 234.695 215.686 234.18C215.957 233.674 216.093 233.06 216.093 232.339V221.124L216.487 217.611ZM206.256 225.396V225.101C206.256 223.94 206.397 222.886 206.678 221.939C206.968 220.984 207.376 220.164 207.9 219.48C208.434 218.796 209.081 218.267 209.84 217.892C210.598 217.517 211.456 217.33 212.411 217.33C213.423 217.33 214.271 217.517 214.955 217.892C215.639 218.267 216.201 218.801 216.641 219.494C217.082 220.178 217.423 220.988 217.667 221.925C217.92 222.853 218.117 223.869 218.257 224.975V225.621C218.117 226.68 217.906 227.664 217.625 228.572C217.344 229.481 216.974 230.278 216.515 230.961C216.056 231.636 215.484 232.161 214.8 232.535C214.126 232.91 213.32 233.097 212.383 233.097C211.446 233.097 210.598 232.905 209.84 232.521C209.09 232.137 208.448 231.598 207.914 230.905C207.38 230.212 206.968 229.397 206.678 228.46C206.397 227.523 206.256 226.502 206.256 225.396ZM210.303 225.101V225.396C210.303 226.024 210.364 226.61 210.486 227.153C210.608 227.696 210.795 228.179 211.048 228.601C211.31 229.013 211.634 229.336 212.018 229.57C212.411 229.795 212.875 229.907 213.409 229.907C214.149 229.907 214.753 229.753 215.222 229.444C215.69 229.125 216.042 228.69 216.276 228.137C216.51 227.584 216.646 226.947 216.683 226.226V224.385C216.665 223.794 216.585 223.265 216.444 222.797C216.304 222.319 216.107 221.911 215.854 221.574C215.601 221.237 215.273 220.974 214.871 220.787C214.468 220.6 213.99 220.506 213.437 220.506C212.903 220.506 212.439 220.628 212.046 220.871C211.662 221.106 211.339 221.429 211.076 221.841C210.823 222.253 210.631 222.74 210.5 223.303C210.369 223.855 210.303 224.455 210.303 225.101ZM227.574 217.611V232.816H223.513V217.611H227.574ZM223.26 213.648C223.26 213.058 223.466 212.571 223.878 212.187C224.291 211.803 224.843 211.61 225.537 211.61C226.221 211.61 226.769 211.803 227.181 212.187C227.603 212.571 227.813 213.058 227.813 213.648C227.813 214.238 227.603 214.726 227.181 215.11C226.769 215.494 226.221 215.686 225.537 215.686C224.843 215.686 224.291 215.494 223.878 215.11C223.466 214.726 223.26 214.238 223.26 213.648ZM237.201 229.936C237.697 229.936 238.138 229.842 238.522 229.654C238.906 229.458 239.206 229.186 239.421 228.839C239.646 228.483 239.763 228.066 239.772 227.589H243.581C243.571 228.657 243.286 229.608 242.724 230.441C242.161 231.266 241.407 231.917 240.461 232.395C239.515 232.863 238.456 233.097 237.285 233.097C236.105 233.097 235.074 232.901 234.193 232.507C233.322 232.114 232.596 231.57 232.015 230.877C231.434 230.174 230.999 229.359 230.708 228.432C230.418 227.495 230.273 226.493 230.273 225.425V225.017C230.273 223.94 230.418 222.937 230.708 222.01C230.999 221.073 231.434 220.258 232.015 219.564C232.596 218.862 233.322 218.314 234.193 217.92C235.065 217.527 236.086 217.33 237.257 217.33C238.503 217.33 239.594 217.569 240.531 218.047C241.477 218.525 242.218 219.208 242.752 220.098C243.295 220.979 243.571 222.024 243.581 223.232H239.772C239.763 222.726 239.655 222.267 239.449 221.855C239.252 221.443 238.962 221.115 238.578 220.871C238.203 220.618 237.739 220.492 237.187 220.492C236.596 220.492 236.114 220.618 235.739 220.871C235.364 221.115 235.074 221.452 234.868 221.883C234.662 222.305 234.517 222.787 234.432 223.331C234.357 223.865 234.32 224.427 234.32 225.017V225.425C234.32 226.015 234.357 226.582 234.432 227.125C234.507 227.668 234.648 228.151 234.854 228.572C235.069 228.994 235.364 229.327 235.739 229.57C236.114 229.814 236.601 229.936 237.201 229.936ZM254.135 229.387V222.614C254.135 222.127 254.055 221.71 253.896 221.363C253.736 221.007 253.488 220.731 253.151 220.534C252.823 220.337 252.397 220.239 251.872 220.239C251.422 220.239 251.034 220.319 250.706 220.478C250.378 220.628 250.125 220.848 249.947 221.138C249.769 221.419 249.68 221.752 249.68 222.136H245.633C245.633 221.49 245.782 220.876 246.082 220.295C246.382 219.714 246.818 219.204 247.389 218.763C247.961 218.314 248.64 217.962 249.427 217.709C250.223 217.457 251.113 217.33 252.097 217.33C253.277 217.33 254.327 217.527 255.245 217.92C256.163 218.314 256.884 218.904 257.409 219.691C257.943 220.478 258.21 221.462 258.21 222.642V229.149C258.21 229.982 258.261 230.666 258.365 231.2C258.468 231.725 258.617 232.184 258.814 232.578V232.816H254.725C254.528 232.404 254.378 231.889 254.275 231.271C254.181 230.643 254.135 230.015 254.135 229.387ZM254.669 223.555L254.697 225.846H252.434C251.9 225.846 251.436 225.907 251.043 226.029C250.649 226.151 250.326 226.324 250.073 226.549C249.82 226.764 249.633 227.017 249.511 227.308C249.399 227.598 249.342 227.917 249.342 228.263C249.342 228.61 249.422 228.924 249.581 229.205C249.741 229.476 249.97 229.692 250.27 229.851C250.57 230.001 250.921 230.076 251.324 230.076C251.933 230.076 252.462 229.954 252.912 229.711C253.362 229.467 253.708 229.167 253.952 228.811C254.205 228.455 254.336 228.118 254.345 227.799L255.413 229.514C255.263 229.898 255.057 230.296 254.795 230.708C254.542 231.121 254.219 231.509 253.825 231.875C253.432 232.231 252.959 232.526 252.406 232.76C251.853 232.985 251.197 233.097 250.439 233.097C249.474 233.097 248.598 232.905 247.811 232.521C247.033 232.128 246.415 231.589 245.956 230.905C245.506 230.212 245.281 229.425 245.281 228.544C245.281 227.748 245.431 227.041 245.731 226.422C246.031 225.804 246.471 225.284 247.052 224.862C247.642 224.431 248.378 224.108 249.258 223.893C250.139 223.668 251.16 223.555 252.322 223.555H254.669ZM273.556 232.816H269.494V216.922C269.494 215.63 269.757 214.538 270.281 213.648C270.815 212.758 271.574 212.084 272.558 211.625C273.551 211.165 274.75 210.936 276.156 210.936C276.952 210.936 277.725 211.016 278.474 211.175C279.224 211.325 279.997 211.521 280.793 211.765L280.203 215.011C279.688 214.852 279.135 214.702 278.545 214.562C277.954 214.421 277.242 214.351 276.409 214.351C275.472 214.351 274.76 214.571 274.272 215.011C273.795 215.442 273.556 216.079 273.556 216.922V232.816ZM276.577 217.611V220.478H267.232V217.611H276.577ZM282.676 217.611V232.816H278.615V217.611H282.676ZM293.061 233.097C291.881 233.097 290.822 232.91 289.885 232.535C288.948 232.151 288.152 231.622 287.496 230.947C286.85 230.273 286.353 229.491 286.007 228.601C285.66 227.701 285.487 226.746 285.487 225.734V225.172C285.487 224.019 285.651 222.965 285.979 222.01C286.307 221.054 286.775 220.225 287.384 219.522C288.002 218.82 288.752 218.281 289.632 217.906C290.513 217.522 291.506 217.33 292.612 217.33C293.689 217.33 294.645 217.508 295.478 217.864C296.312 218.22 297.01 218.726 297.572 219.382C298.144 220.038 298.575 220.825 298.865 221.743C299.156 222.651 299.301 223.663 299.301 224.778V226.464H287.215V223.766H295.324V223.457C295.324 222.895 295.221 222.394 295.015 221.953C294.818 221.504 294.518 221.148 294.115 220.885C293.712 220.623 293.197 220.492 292.569 220.492C292.035 220.492 291.576 220.609 291.192 220.843C290.808 221.077 290.494 221.405 290.251 221.827C290.016 222.249 289.838 222.745 289.717 223.317C289.604 223.879 289.548 224.497 289.548 225.172V225.734C289.548 226.343 289.632 226.905 289.801 227.42C289.979 227.935 290.227 228.38 290.546 228.755C290.874 229.13 291.267 229.42 291.726 229.626C292.195 229.832 292.724 229.936 293.314 229.936C294.045 229.936 294.724 229.795 295.352 229.514C295.989 229.224 296.537 228.788 296.996 228.207L298.964 230.343C298.645 230.802 298.209 231.242 297.657 231.664C297.113 232.086 296.457 232.432 295.689 232.704C294.921 232.966 294.045 233.097 293.061 233.097ZM305.878 211.231V232.816H301.816V211.231H305.878ZM318.202 229.5V211.231H322.277V232.816H318.61L318.202 229.5ZM308.59 225.396V225.101C308.59 223.94 308.721 222.886 308.983 221.939C309.246 220.984 309.63 220.164 310.136 219.48C310.642 218.796 311.265 218.267 312.005 217.892C312.745 217.517 313.588 217.33 314.534 217.33C315.424 217.33 316.202 217.517 316.867 217.892C317.542 218.267 318.113 218.801 318.582 219.494C319.059 220.178 319.443 220.988 319.734 221.925C320.024 222.853 320.235 223.869 320.366 224.975V225.621C320.235 226.68 320.024 227.664 319.734 228.572C319.443 229.481 319.059 230.278 318.582 230.961C318.113 231.636 317.542 232.161 316.867 232.535C316.193 232.91 315.406 233.097 314.506 233.097C313.56 233.097 312.717 232.905 311.977 232.521C311.246 232.137 310.628 231.598 310.122 230.905C309.625 230.212 309.246 229.397 308.983 228.46C308.721 227.523 308.59 226.502 308.59 225.396ZM312.637 225.101V225.396C312.637 226.024 312.684 226.61 312.778 227.153C312.881 227.696 313.045 228.179 313.269 228.601C313.504 229.013 313.804 229.336 314.169 229.57C314.544 229.795 314.998 229.907 315.532 229.907C316.225 229.907 316.797 229.753 317.246 229.444C317.696 229.125 318.038 228.69 318.272 228.137C318.516 227.584 318.656 226.947 318.694 226.226V224.385C318.666 223.794 318.582 223.265 318.441 222.797C318.31 222.319 318.113 221.911 317.851 221.574C317.598 221.237 317.279 220.974 316.895 220.787C316.52 220.6 316.075 220.506 315.56 220.506C315.035 220.506 314.586 220.628 314.211 220.871C313.836 221.106 313.532 221.429 313.298 221.841C313.073 222.253 312.904 222.74 312.792 223.303C312.689 223.855 312.637 224.455 312.637 225.101Z" fill="white"/>
<g style="mix-blend-mode:darken">
<path d="M397.533 201.463H7.19649C-9.69199 201.463 -23.3828 215.154 -23.3828 232.042C-23.3828 248.931 -9.69199 262.622 7.19649 262.622H397.533C414.421 262.622 428.112 248.931 428.112 232.042C428.112 215.154 414.421 201.463 397.533 201.463Z" fill="white"/>
</g>
</g>
<mask id="mask1_111_898" style="mask-type:luminance" maskUnits="userSpaceOnUse" x="103" y="25" width="244" height="141">
<path d="M335.536 25H114.275C108.314 25 103.482 29.8321 103.482 35.7927V154.59C103.482 160.551 108.314 165.383 114.275 165.383H335.536C341.496 165.383 346.328 160.551 346.328 154.59V35.7927C346.328 29.8321 341.496 25 335.536 25Z" fill="white"/>
</mask>
<g mask="url(#mask1_111_898)">
<path d="M335.536 25H114.275C108.314 25 103.482 29.8321 103.482 35.7927V154.59C103.482 160.551 108.314 165.383 114.275 165.383H335.536C341.496 165.383 346.328 160.551 346.328 154.59V35.7927C346.328 29.8321 341.496 25 335.536 25Z" fill="#F5F7FF"/>
<path d="M346.328 25H103.482V32.2612H346.328V25Z" fill="#3F51B4"/>
<path d="M170.447 39.5215H115.585C112.911 39.5215 110.744 41.6888 110.744 44.3623V148.439C110.744 151.112 112.911 153.279 115.585 153.279H170.447C173.121 153.279 175.288 151.112 175.288 148.439V44.3623C175.288 41.6888 173.121 39.5215 170.447 39.5215Z" fill="white"/>
<path d="M329.386 39.5215H188.196C185.523 39.5215 183.355 41.6888 183.355 44.3623V148.439C183.355 151.112 185.523 153.279 188.196 153.279H329.386C332.059 153.279 334.226 151.112 334.226 148.439V44.3623C334.226 41.6888 332.059 39.5215 329.386 39.5215Z" fill="white"/>
<path d="M155.926 45.1699H118.813C117.476 45.1699 116.393 46.2536 116.393 47.5903C116.393 48.9271 117.476 50.0107 118.813 50.0107H155.926C157.262 50.0107 158.346 48.9271 158.346 47.5903C158.346 46.2536 157.262 45.1699 155.926 45.1699Z" fill="#3F51B4"/>
<path d="M218.048 45.1699H193.038C191.701 45.1699 190.617 46.2536 190.617 47.5903C190.617 48.9271 191.701 50.0107 193.038 50.0107H218.048C219.385 50.0107 220.469 48.9271 220.469 47.5903C220.469 46.2536 219.385 45.1699 218.048 45.1699Z" fill="#3F51B4"/>
<path d="M302.762 82.2832H190.617V87.124H302.762V82.2832Z" fill="#3F51B4" fill-opacity="0.4"/>
<path d="M302.762 130.689H190.617V135.53H302.762V130.689Z" fill="#3F51B4" fill-opacity="0.4"/>
<path d="M302.762 90.3496H190.617V95.1904H302.762V90.3496Z" fill="#3F51B4" fill-opacity="0.4"/>
<path d="M263.229 138.758H190.617V143.599H263.229V138.758Z" fill="#3F51B4" fill-opacity="0.4"/>
<path d="M155.926 95.1914H118.813C117.476 95.1914 116.393 96.2751 116.393 97.6118C116.393 98.9485 117.476 100.032 118.813 100.032H155.926C157.262 100.032 158.346 98.9485 158.346 97.6118C158.346 96.2751 157.262 95.1914 155.926 95.1914Z" fill="#3F51B4"/>
<path d="M142.21 138.758H118.813C117.476 138.758 116.393 139.841 116.393 141.178C116.393 142.515 117.476 143.599 118.813 143.599H142.21C143.547 143.599 144.63 142.515 144.63 141.178C144.63 139.841 143.547 138.758 142.21 138.758Z" fill="#3F51B4"/>
<path d="M138.983 53.2383H118.813C117.476 53.2383 116.393 54.3219 116.393 55.6587C116.393 56.9954 117.476 58.0791 118.813 58.0791H138.983C140.32 58.0791 141.403 56.9954 141.403 55.6587C141.403 54.3219 140.32 53.2383 138.983 53.2383Z" fill="#F5F7FF"/>
<path d="M138.983 61.3066H118.813C117.476 61.3066 116.393 62.3903 116.393 63.727C116.393 65.0638 117.476 66.1474 118.813 66.1474H138.983C140.32 66.1474 141.403 65.0638 141.403 63.727C141.403 62.3903 140.32 61.3066 138.983 61.3066Z" fill="#F5F7FF"/>
<path d="M138.983 104.873H118.813C117.476 104.873 116.393 105.957 116.393 107.293C116.393 108.63 117.476 109.714 118.813 109.714H138.983C140.32 109.714 141.403 108.63 141.403 107.293C141.403 105.957 140.32 104.873 138.983 104.873Z" fill="#F5F7FF"/>
<path d="M138.983 69.373H118.813C117.476 69.373 116.393 70.4567 116.393 71.7934C116.393 73.1302 117.476 74.2138 118.813 74.2138H138.983C140.32 74.2138 141.403 73.1302 141.403 71.7934C141.403 70.4567 140.32 69.373 138.983 69.373Z" fill="#F5F7FF"/>
<path d="M138.983 112.941H118.813C117.476 112.941 116.393 114.025 116.393 115.362C116.393 116.699 117.476 117.782 118.813 117.782H138.983C140.32 117.782 141.403 116.699 141.403 115.362C141.403 114.025 140.32 112.941 138.983 112.941Z" fill="#F5F7FF"/>
<path d="M138.983 77.4414H118.813C117.476 77.4414 116.393 78.5251 116.393 79.8618C116.393 81.1985 117.476 82.2822 118.813 82.2822H138.983C140.32 82.2822 141.403 81.1985 141.403 79.8618C141.403 78.5251 140.32 77.4414 138.983 77.4414Z" fill="#F5F7FF"/>
<path d="M138.983 121.008H118.813C117.476 121.008 116.393 122.091 116.393 123.428C116.393 124.765 117.476 125.849 118.813 125.849H138.983C140.32 125.849 141.403 124.765 141.403 123.428C141.403 122.091 140.32 121.008 138.983 121.008Z" fill="#F5F7FF"/>
<path d="M138.983 85.5098H118.813C117.476 85.5098 116.393 86.5934 116.393 87.9302C116.393 89.2669 117.476 90.3505 118.813 90.3505H138.983C140.32 90.3505 141.403 89.2669 141.403 87.9302C141.403 86.5934 140.32 85.5098 138.983 85.5098Z" fill="#F5F7FF"/>
<path d="M138.983 129.076H118.813C117.476 129.076 116.393 130.16 116.393 131.497C116.393 132.833 117.476 133.917 118.813 133.917H138.983C140.32 133.917 141.403 132.833 141.403 131.497C141.403 130.16 140.32 129.076 138.983 129.076Z" fill="#F5F7FF"/>
<path d="M214.014 53.2383H193.037C192.146 53.2383 191.424 53.9607 191.424 54.8519V75.8286C191.424 76.7198 192.146 77.4422 193.037 77.4422H214.014C214.905 77.4422 215.628 76.7198 215.628 75.8286V54.8519C215.628 53.9607 214.905 53.2383 214.014 53.2383Z" fill="#F5F7FF"/>
<path d="M214.014 100.838H193.037C192.146 100.838 191.424 101.56 191.424 102.451V123.428C191.424 124.319 192.146 125.042 193.037 125.042H214.014C214.905 125.042 215.628 124.319 215.628 123.428V102.451C215.628 101.56 214.905 100.838 214.014 100.838Z" fill="#F5F7FF"/>
<path d="M243.059 53.2383H222.082C221.191 53.2383 220.469 53.9607 220.469 54.8519V75.8286C220.469 76.7198 221.191 77.4422 222.082 77.4422H243.059C243.95 77.4422 244.673 76.7198 244.673 75.8286V54.8519C244.673 53.9607 243.95 53.2383 243.059 53.2383Z" fill="#F5F7FF"/>
<path d="M243.059 100.838H222.082C221.191 100.838 220.469 101.56 220.469 102.451V123.428C220.469 124.319 221.191 125.042 222.082 125.042H243.059C243.95 125.042 244.673 124.319 244.673 123.428V102.451C244.673 101.56 243.95 100.838 243.059 100.838Z" fill="#F5F7FF"/>
<path d="M272.104 53.2383H251.127C250.236 53.2383 249.514 53.9607 249.514 54.8519V75.8286C249.514 76.7198 250.236 77.4422 251.127 77.4422H272.104C272.995 77.4422 273.718 76.7198 273.718 75.8286V54.8519C273.718 53.9607 272.995 53.2383 272.104 53.2383Z" fill="#F5F7FF"/>
<path d="M272.104 100.838H251.127C250.236 100.838 249.514 101.56 249.514 102.451V123.428C249.514 124.319 250.236 125.042 251.127 125.042H272.104C272.995 125.042 273.718 124.319 273.718 123.428V102.451C273.718 101.56 272.995 100.838 272.104 100.838Z" fill="#F5F7FF"/>
<path d="M301.149 53.2383H280.172C279.281 53.2383 278.559 53.9607 278.559 54.8519V75.8286C278.559 76.7198 279.281 77.4422 280.172 77.4422H301.149C302.04 77.4422 302.763 76.7198 302.763 75.8286V54.8519C302.763 53.9607 302.04 53.2383 301.149 53.2383Z" fill="#F5F7FF"/>
<path d="M301.149 100.838H280.172C279.281 100.838 278.559 101.56 278.559 102.451V123.428C278.559 124.319 279.281 125.042 280.172 125.042H301.149C302.04 125.042 302.763 124.319 302.763 123.428V102.451C302.763 101.56 302.04 100.838 301.149 100.838Z" fill="#F5F7FF"/>
</g>
<path d="M335.536 25.4043H114.276C108.538 25.4043 103.887 30.0557 103.887 35.7936V154.591C103.887 160.329 108.538 164.98 114.276 164.98H335.536C341.274 164.98 345.926 160.329 345.926 154.591V35.7936C345.926 30.0557 341.274 25.4043 335.536 25.4043Z" stroke="#B4B4B4" stroke-width="0.806797"/>
<path d="M148.409 61.6495L148.409 61.6495C149.161 63.515 148.241 65.5914 146.354 66.2872L91.9479 86.3434C90.0604 87.0392 87.92 86.091 87.1673 84.2254C86.4145 82.3599 87.3344 80.2835 89.2219 79.5877L143.628 59.5315C145.515 58.8357 147.656 59.7839 148.409 61.6495Z" fill="#878787"/>
<path d="M56.3101 158.837C55.4649 152.662 67.4181 109.487 75.0802 83.2087C76.2922 79.0518 80.1058 76.2148 84.4358 76.2148H101.419C108.91 76.2148 110.784 86.6204 103.763 89.2332C98.0576 91.3565 97.8895 99.3649 103.501 101.726L107.487 103.403C111.325 105.017 113.41 109.191 112.396 113.23L101.815 155.368C100.716 159.747 97.0077 162.999 92.5047 163.333C77.61 164.437 57.0921 164.55 56.3101 158.837Z" fill="#595959"/>
<path d="M73.695 101.474C62.8945 103.498 46.4477 113.364 37.6835 119.298C36.1482 120.338 34.3921 121.005 32.5479 121.196L31.6794 121.287C26.1802 121.858 22.002 126.493 22.002 132.022V149.331C22.002 157.052 30.2723 162.536 37.9576 163.28C39.2224 163.402 40.4944 163.612 41.7498 163.929C47.1271 165.29 54.4244 165.184 60.1237 164.715C61.8308 164.574 62.0366 162.378 60.4104 161.84C59.6866 161.6 59.2227 160.894 59.296 160.135C59.9394 153.469 61.2814 142.278 62.3689 142.278C63.3996 142.278 73.6526 128.874 80.346 119.906C81.871 117.863 84.0586 116.427 86.5286 115.795C100.104 112.321 121.56 105.609 122.193 100.363C123.065 93.1463 113.191 95.3669 104.188 97.0324C95.1852 98.6979 88.5058 98.6979 73.695 101.474Z" fill="#B8C2F9"/>
<path d="M115.223 124.513C113.578 124.605 109.996 124.901 108.834 125.346C107.382 125.901 103.317 122.57 99.2508 125.346C95.185 128.121 93.1522 128.121 92.8618 131.73C92.697 133.778 97.5826 135.826 101.999 137.163L101.634 137.252C100.065 137.637 98.4277 137.63 96.8266 137.416C87.1786 136.122 86.1402 140.991 85.6015 142.278C85.0207 143.666 86.4728 148.385 95.7659 149.773C105.059 151.161 110.577 146.164 112.61 143.943C113.916 142.516 112.936 139.083 111.898 136.636C114.019 134.672 116.391 131.14 116.15 125.384C116.129 124.892 115.716 124.513 115.223 124.513Z" fill="#B8C2F9"/>
<path d="M105.931 158.379C108.262 156.646 108.295 154.373 107.499 152.347C106.372 149.479 102.989 148.448 99.9476 148.947C91.927 150.261 94.1102 152.545 92.8625 154.215C91.4105 156.158 93.7338 158.379 94.3146 159.767C94.8954 161.154 100.703 162.265 105.931 158.379Z" fill="#B8C2F9"/>
<path d="M112.015 120.001C112.576 120.341 113.219 120.947 113.846 121.638C114.943 122.846 114.081 124.68 112.455 124.815C110.979 124.937 109.831 123.554 110.224 122.126L110.542 120.972C110.75 120.217 111.345 119.595 112.015 120.001Z" fill="#B8B8B8"/>
<path d="M94.0462 53.2383H145.525C149.816 53.2383 153.295 56.7172 153.295 61.0086C153.295 65.3 149.816 68.7789 145.525 68.7789H94.0462C89.7548 68.7789 86.2759 65.3 86.2759 61.0086C86.2759 56.7172 89.7548 53.2383 94.0462 53.2383Z" fill="#444444"/>
<path d="M95.8221 65.3416C98.2728 65.3416 100.26 63.3549 100.26 60.9042C100.26 58.4535 98.2728 56.4668 95.8221 56.4668C93.3714 56.4668 91.3848 58.4535 91.3848 60.9042C91.3848 63.3549 93.3714 65.3416 95.8221 65.3416Z" fill="white"/>
<path d="M110.342 65.3416C112.792 65.3416 114.779 63.3549 114.779 60.9042C114.779 58.4535 112.792 56.4668 110.342 56.4668C107.891 56.4668 105.904 58.4535 105.904 60.9042C105.904 63.3549 107.891 65.3416 110.342 65.3416Z" fill="white"/>
<path d="M124.867 65.3416C127.318 65.3416 129.304 63.3549 129.304 60.9042C129.304 58.4535 127.318 56.4668 124.867 56.4668C122.416 56.4668 120.43 58.4535 120.43 60.9042C120.43 63.3549 122.416 65.3416 124.867 65.3416Z" fill="white"/>
<path d="M356.857 95.7937C357.489 94.7892 361.495 89.8969 363.656 87.2894C363.827 87.083 363.917 86.8233 363.911 86.5552C363.893 85.7211 364.765 85.1641 365.514 85.5309L367.743 86.6217C369.624 87.5426 369.72 90.1864 367.904 91.2299C365.753 92.4654 363.759 93.5901 363.502 93.6667C363.095 93.7879 359.978 102.523 358.137 107.829C357.899 108.515 357.207 108.933 356.489 108.825C355.706 108.707 355.147 108.005 355.217 107.216C355.582 103.116 356.272 96.7256 356.857 95.7937Z" fill="#CDD5FF"/>
<path d="M335.548 90.8494C336.425 89.0543 340.418 83.3524 342.701 80.1733C342.98 79.7841 343.489 79.6394 343.933 79.8203C344.092 79.8851 344.264 79.9095 344.435 79.8913L357.319 78.5179C359.869 78.246 361.006 80.3879 358.502 80.9433C354.982 81.724 348.716 85.9116 347.611 87.1948C346.807 88.1289 344.219 92.0467 342.698 94.3923C342.419 94.8223 342.174 95.2707 341.958 95.7355C340.692 98.4603 338.452 103.097 337.543 104.28C335.362 107.119 332.615 100.801 333.525 97.3382C334.243 94.609 335.022 91.9275 335.548 90.8494Z" fill="#B0BBFA"/>
<path d="M351.16 89.4013C351.239 88.9323 353.313 85.9059 355.131 83.3838C356.784 81.0903 359.382 79.9668 362.204 80.131C364.196 80.2468 366.261 80.3682 367.813 80.4621C369.432 80.5601 370.888 81.3707 371.848 82.6774C374.644 86.4832 371.755 90.6773 367.306 89.0934C364.656 88.1502 362.075 89.1167 360.406 91.3802C359.59 92.4871 358.873 93.4557 358.577 93.8469C357.753 94.9335 357.129 104.635 356.479 109.964C355.829 115.293 351.385 114.525 350.717 114.063C350.049 113.601 350.502 108.286 350.189 105.788C349.875 103.29 351.025 90.1996 351.16 89.4013Z" fill="#B0BBFA"/>
<path d="M397.34 71.2665C399.633 70.9478 410.917 71.4431 421.678 72.0341C429.036 72.4381 433.76 79.9784 430.979 86.8025L430.606 87.716C428.77 92.2218 424.144 94.9505 419.321 94.3046C415.676 93.8164 412.085 93.2983 410.439 92.9583C406.656 92.1766 404.567 96.3641 400.851 98.4616C397.134 100.559 384.076 101.701 378.648 101.676C373.221 101.65 363.798 109.788 358.197 105.509C352.596 101.229 356.147 96.4967 356.939 95.4887C357.732 94.4808 369.039 92.7199 371.81 92.7086C374.585 92.6973 375.014 89.3774 373.386 87.1303C372.924 86.4929 372.458 85.884 372.029 85.3827C370.286 83.341 358.841 80.292 357.33 80.7219C356.196 81.0446 348.106 80.9363 343.473 80.8261C342.895 80.8123 342.321 80.8439 341.748 80.9158C336.35 81.5932 326.025 82.4551 321.845 81.1836C320.1 80.6527 319.183 79.9799 318.774 79.3013C317.777 77.6462 320.299 76.3987 322.181 75.957C330.392 74.0286 343.171 71.0868 345.233 70.8473C348.137 70.5099 362.951 69.0379 365.219 68.1558C367.486 67.2737 392.992 71.8708 397.34 71.2665Z" fill="#8A97DF"/>
<path d="M322.529 86.7199C326.985 86.7199 330.597 83.1078 330.597 78.652C330.597 74.1961 326.985 70.584 322.529 70.584C318.073 70.584 314.461 74.1961 314.461 78.652C314.461 83.1078 318.073 86.7199 322.529 86.7199Z" stroke="#C0C0C0" stroke-width="0.806797"/>
<path d="M322.528 90.9551C329.323 90.9551 334.832 85.4465 334.832 78.6514C334.832 71.8562 329.323 66.3477 322.528 66.3477C315.733 66.3477 310.225 71.8562 310.225 78.6514C310.225 85.4465 315.733 90.9551 322.528 90.9551Z" stroke="#C0C0C0" stroke-width="0.403399"/>
</g>
<path d="M389.726 0.5H15C6.99187 0.5 0.5 6.99187 0.5 15V236.83C0.5 244.838 6.99187 251.33 15 251.33H389.726C397.734 251.33 404.226 244.838 404.226 236.83V15C404.226 6.99187 397.734 0.5 389.726 0.5Z" stroke="black"/>
</g>
<defs>
<filter id="filter0_d_111_898" x="-48.5663" y="193.369" width="501.859" height="76.4471" filterUnits="userSpaceOnUse" color-interpolation-filters="sRGB">
<feFlood flood-opacity="0" result="BackgroundImageFix"/>
<feColorMatrix in="SourceAlpha" type="matrix" values="0 0 0 0 0 0 0 0 0 0 0 0 0 0 0 0 0 0 127 0" result="hardAlpha"/>
<feOffset dy="3.59757"/>
<feGaussianBlur stdDeviation="1.79878"/>
<feComposite in2="hardAlpha" operator="out"/>
<feColorMatrix type="matrix" values="0 0 0 0 0 0 0 0 0 0 0 0 0 0 0 0 0 0 0.25 0"/>
<feBlend mode="normal" in2="BackgroundImageFix" result="effect1_dropShadow_111_898"/>
<feBlend mode="normal" in="SourceGraphic" in2="effect1_dropShadow_111_898" result="shape"/>
</filter>
<clipPath id="clip0_111_898">
<rect width="405" height="252" fill="white"/>
</clipPath>
</defs>
</svg>
