<svg width="405" height="252" viewBox="0 0 405 252" fill="none" xmlns="http://www.w3.org/2000/svg">
<g clip-path="url(#clip0_76_7110)">
<rect width="404.726" height="251.83" rx="15" fill="white"/>
<g filter="url(#filter0_d_76_7110)">
<rect x="-44.9688" y="193.369" width="494.665" height="62.7805" rx="31.3903" fill="#333333" shape-rendering="crispEdges"/>
<text fill="white" xml:space="preserve" style="white-space: pre" font-family="Roboto" font-size="28.7805" font-weight="bold" letter-spacing="0em"><tspan x="80.8611" y="234.597">Morphologica field</tspan></text>
<rect x="-23.3828" y="201.463" width="451.495" height="61.1586" rx="30.5793" fill="white" style="mix-blend-mode:darken"/>
</g>
<g clip-path="url(#clip1_76_7110)">
<rect x="103.482" y="25" width="242.846" height="140.383" rx="10.7927" fill="#F5F7FF"/>
<rect x="103.482" y="25" width="242.846" height="7.26117" fill="#3F51B4"/>
<rect x="110.744" y="39.5215" width="64.5438" height="113.758" rx="4.84078" fill="white"/>
<rect x="183.355" y="39.5215" width="150.871" height="113.758" rx="4.84078" fill="white"/>
<rect x="116.393" y="45.1699" width="41.9535" height="4.84078" rx="2.42039" fill="#3F51B4"/>
<rect x="190.617" y="45.1699" width="29.8515" height="4.84078" rx="2.42039" fill="#3F51B4"/>
<rect x="190.617" y="82.2832" width="112.145" height="4.84078" fill="#3F51B4" fill-opacity="0.4"/>
<rect x="190.617" y="130.689" width="112.145" height="4.84078" fill="#3F51B4" fill-opacity="0.4"/>
<rect x="190.617" y="90.3496" width="112.145" height="4.84078" fill="#3F51B4" fill-opacity="0.4"/>
<rect x="190.617" y="138.758" width="72.6117" height="4.84078" fill="#3F51B4" fill-opacity="0.4"/>
<rect x="116.393" y="95.1914" width="41.9535" height="4.84078" rx="2.42039" fill="#3F51B4"/>
<rect x="116.393" y="138.758" width="28.2379" height="4.84078" rx="2.42039" fill="#3F51B4"/>
<rect x="116.393" y="53.2383" width="25.0107" height="4.84078" rx="2.42039" fill="#F5F7FF"/>
<rect x="116.393" y="61.3066" width="25.0107" height="4.84078" rx="2.42039" fill="#F5F7FF"/>
<rect x="116.393" y="104.873" width="25.0107" height="4.84078" rx="2.42039" fill="#F5F7FF"/>
<rect x="116.393" y="69.373" width="25.0107" height="4.84078" rx="2.42039" fill="#F5F7FF"/>
<rect x="116.393" y="112.941" width="25.0107" height="4.84078" rx="2.42039" fill="#F5F7FF"/>
<rect x="116.393" y="77.4414" width="25.0107" height="4.84078" rx="2.42039" fill="#F5F7FF"/>
<rect x="116.393" y="121.008" width="25.0107" height="4.84078" rx="2.42039" fill="#F5F7FF"/>
<rect x="116.393" y="85.5098" width="25.0107" height="4.84078" rx="2.42039" fill="#F5F7FF"/>
<rect x="116.393" y="129.076" width="25.0107" height="4.84078" rx="2.42039" fill="#F5F7FF"/>
<rect x="191.424" y="53.2383" width="24.2039" height="24.2039" rx="1.61359" fill="#F5F7FF"/>
<rect x="191.424" y="100.838" width="24.2039" height="24.2039" rx="1.61359" fill="#F5F7FF"/>
<rect x="220.469" y="53.2383" width="24.2039" height="24.2039" rx="1.61359" fill="#F5F7FF"/>
<rect x="220.469" y="100.838" width="24.2039" height="24.2039" rx="1.61359" fill="#F5F7FF"/>
<rect x="249.514" y="53.2383" width="24.2039" height="24.2039" rx="1.61359" fill="#F5F7FF"/>
<rect x="249.514" y="100.838" width="24.2039" height="24.2039" rx="1.61359" fill="#F5F7FF"/>
<rect x="278.559" y="53.2383" width="24.2039" height="24.2039" rx="1.61359" fill="#F5F7FF"/>
<rect x="278.559" y="100.838" width="24.2039" height="24.2039" rx="1.61359" fill="#F5F7FF"/>
</g>
<rect x="103.886" y="25.4034" width="242.039" height="139.576" rx="10.3893" stroke="#B4B4B4" stroke-width="0.806797"/>
<rect width="7.28497" height="65.2699" rx="3.64248" transform="matrix(-0.374189 -0.927353 -0.938277 0.345886 149.771 65.0273)" fill="#878787"/>
<path d="M56.3104 158.837C55.4652 152.662 67.4184 109.487 75.0805 83.2087C76.2925 79.0518 80.1061 76.2148 84.4361 76.2148H101.419C108.91 76.2148 110.784 86.6204 103.763 89.2332C98.0579 91.3565 97.8898 99.3649 103.501 101.726L107.487 103.403C111.325 105.017 113.41 109.191 112.396 113.23L101.815 155.368C100.716 159.747 97.008 162.999 92.505 163.333C77.6103 164.437 57.0924 164.55 56.3104 158.837Z" fill="#595959"/>
<path d="M73.694 101.474C62.8935 103.498 46.4467 113.364 37.6825 119.298C36.1472 120.338 34.3911 121.005 32.5469 121.196L31.6784 121.287C26.1792 121.858 22.001 126.493 22.001 132.022V149.331C22.001 157.052 30.2713 162.536 37.9566 163.28C39.2214 163.402 40.4934 163.612 41.7488 163.929C47.1261 165.29 54.4234 165.184 60.1227 164.715C61.8298 164.574 62.0356 162.378 60.4094 161.84V161.84C59.6856 161.6 59.2217 160.894 59.295 160.135C59.9384 153.469 61.2804 142.278 62.3679 142.278C63.3986 142.278 73.6516 128.874 80.345 119.906C81.87 117.863 84.0576 116.427 86.5276 115.795C100.103 112.321 121.559 105.609 122.192 100.363C123.064 93.1462 113.19 95.3668 104.187 97.0323C95.1842 98.6978 88.5048 98.6978 73.694 101.474Z" fill="#B8C2F9"/>
<path d="M115.222 124.513C113.577 124.605 109.995 124.901 108.833 125.346C107.381 125.901 103.316 122.57 99.2499 125.346C95.1841 128.121 93.1513 128.121 92.8609 131.73C92.6961 133.778 97.5817 135.826 101.998 137.163L101.633 137.252C100.064 137.637 98.4268 137.63 96.8257 137.416C87.1777 136.122 86.1393 140.991 85.6006 142.278C85.0198 143.666 86.4719 148.385 95.765 149.773C105.058 151.161 110.576 146.164 112.609 143.943C113.915 142.516 112.935 139.083 111.897 136.636C114.018 134.672 116.39 131.14 116.149 125.384C116.128 124.892 115.715 124.513 115.222 124.513V124.513Z" fill="#B8C2F9"/>
<path d="M105.93 158.378C108.261 156.645 108.294 154.372 107.498 152.346C106.371 149.478 102.988 148.447 99.9466 148.946C91.926 150.26 94.1092 152.544 92.8615 154.214C91.4095 156.157 93.7328 158.378 94.3136 159.766C94.8944 161.153 100.702 162.264 105.93 158.378Z" fill="#B8C2F9"/>
<path d="M112.015 120.001C112.576 120.341 113.219 120.947 113.846 121.638C114.943 122.846 114.081 124.68 112.455 124.815C110.979 124.937 109.831 123.554 110.224 122.126L110.542 120.972C110.75 120.217 111.345 119.595 112.015 120.001Z" fill="#B8B8B8"/>
<rect width="67.019" height="15.5406" rx="7.77032" transform="matrix(-1 0 0 1 153.295 53.2383)" fill="#444444"/>
<circle cx="95.8222" cy="60.9042" r="4.43738" fill="white"/>
<circle cx="110.342" cy="60.9042" r="4.43738" fill="white"/>
<circle cx="124.867" cy="60.9042" r="4.43738" fill="white"/>
<path d="M356.856 95.7929C357.488 94.7884 361.494 89.8961 363.655 87.2886C363.826 87.0822 363.916 86.8225 363.91 86.5544C363.892 85.7203 364.764 85.1633 365.513 85.5301L367.742 86.6209C369.623 87.5418 369.719 90.1856 367.903 91.2291C365.752 92.4646 363.758 93.5893 363.501 93.6659C363.094 93.7871 359.977 102.522 358.136 107.828C357.898 108.514 357.206 108.932 356.488 108.824C355.705 108.706 355.146 108.004 355.216 107.215C355.581 103.115 356.271 96.7248 356.856 95.7929Z" fill="#CDD5FF"/>
<path d="M335.548 90.8485C336.425 89.0534 340.418 83.3515 342.701 80.1724C342.98 79.7832 343.489 79.6385 343.933 79.8194C344.092 79.8842 344.264 79.9086 344.435 79.8904L357.319 78.517C359.869 78.2451 361.006 80.387 358.502 80.9424C354.982 81.7231 348.716 85.9107 347.611 87.1939C346.807 88.128 344.219 92.0458 342.698 94.3914C342.419 94.8214 342.174 95.2698 341.958 95.7346C340.692 98.4594 338.452 103.096 337.543 104.279C335.362 107.118 332.615 100.8 333.525 97.3373C334.243 94.6081 335.022 91.9266 335.548 90.8485Z" fill="#B0BBFA"/>
<path d="M351.16 89.4008C351.239 88.9318 353.313 85.9054 355.131 83.3833C356.784 81.0898 359.382 79.9663 362.204 80.1305C364.196 80.2463 366.261 80.3677 367.813 80.4616C369.432 80.5596 370.888 81.3702 371.848 82.6769C374.644 86.4827 371.755 90.6768 367.306 89.0929C364.656 88.1497 362.075 89.1162 360.406 91.3797C359.59 92.4866 358.873 93.4552 358.577 93.8464C357.753 94.933 357.129 104.635 356.479 109.964C355.829 115.293 351.385 114.525 350.717 114.063C350.049 113.601 350.502 108.286 350.189 105.788C349.875 103.29 351.025 90.1991 351.16 89.4008Z" fill="#B0BBFA"/>
<path d="M397.34 71.2666C399.633 70.9479 410.917 71.4432 421.678 72.0342C429.036 72.4382 433.76 79.9785 430.979 86.8026L430.606 87.7161C428.77 92.2219 424.144 94.9506 419.321 94.3047C415.676 93.8165 412.085 93.2984 410.439 92.9584C406.656 92.1767 404.567 96.3642 400.851 98.4617C397.134 100.559 384.076 101.701 378.648 101.676C373.221 101.65 363.798 109.788 358.197 105.509C352.596 101.229 356.147 96.4968 356.939 95.4888C357.732 94.4809 369.039 92.72 371.81 92.7087C374.585 92.6974 375.014 89.3775 373.386 87.1304C372.924 86.493 372.458 85.8841 372.029 85.3828C370.286 83.3411 358.841 80.2921 357.33 80.722C356.196 81.0447 348.106 80.9364 343.473 80.8262C342.895 80.8124 342.321 80.844 341.748 80.9159C336.35 81.5933 326.025 82.4552 321.845 81.1837C320.1 80.6528 319.183 79.98 318.774 79.3014C317.777 77.6463 320.299 76.3988 322.181 75.9571C330.392 74.0287 343.171 71.0869 345.233 70.8474C348.137 70.51 362.951 69.038 365.219 68.1559C367.486 67.2738 392.992 71.8709 397.34 71.2666Z" fill="#8A97DF"/>
<circle cx="322.528" cy="78.6511" r="8.06797" stroke="#C0C0C0" stroke-width="0.806797"/>
<circle cx="322.529" cy="78.6518" r="12.3037" stroke="#C0C0C0" stroke-width="0.403399"/>
</g>
<rect x="0.5" y="0.5" width="403.726" height="250.83" rx="14.5" stroke="black"/>
<defs>
<filter id="filter0_d_76_7110" x="-48.5663" y="193.369" width="501.861" height="76.4471" filterUnits="userSpaceOnUse" color-interpolation-filters="sRGB">
<feFlood flood-opacity="0" result="BackgroundImageFix"/>
<feColorMatrix in="SourceAlpha" type="matrix" values="0 0 0 0 0 0 0 0 0 0 0 0 0 0 0 0 0 0 127 0" result="hardAlpha"/>
<feOffset dy="3.59757"/>
<feGaussianBlur stdDeviation="1.79878"/>
<feComposite in2="hardAlpha" operator="out"/>
<feColorMatrix type="matrix" values="0 0 0 0 0 0 0 0 0 0 0 0 0 0 0 0 0 0 0.25 0"/>
<feBlend mode="normal" in2="BackgroundImageFix" result="effect1_dropShadow_76_7110"/>
<feBlend mode="normal" in="SourceGraphic" in2="effect1_dropShadow_76_7110" result="shape"/>
</filter>
<clipPath id="clip0_76_7110">
<rect width="404.726" height="251.83" rx="15" fill="white"/>
</clipPath>
<clipPath id="clip1_76_7110">
<rect x="103.482" y="25" width="242.846" height="140.383" rx="10.7927" fill="white"/>
</clipPath>
</defs>
</svg>
