<svg width="622" height="602" viewBox="0 0 622 602" fill="none" xmlns="http://www.w3.org/2000/svg">
<circle cx="321.5" cy="295.5" r="185.75" stroke="#DDDDDD" stroke-width="1.5"/>
<path d="M476.5 296.5C476.5 382.103 406.882 451.5 321 451.5C235.118 451.5 165.5 382.103 165.5 296.5C165.5 210.897 235.118 141.5 321 141.5C406.882 141.5 476.5 210.897 476.5 296.5Z" stroke="#D9D9D9"/>
<circle cx="321.5" cy="295.5" r="223.5" stroke="#C6C6C6" stroke-width="2"/>
<circle cx="321" cy="301" r="300" stroke="#9F9F9F" stroke-width="2"/>
<g filter="url(#filter0_d_203_1307)">
<circle cx="155" cy="141" r="122" fill="#C7C7C7"/>
<circle cx="155" cy="141" r="121" stroke="white" stroke-width="2"/>
</g>
<rect width="7.5003" height="67.1992" rx="3.75015" transform="matrix(-0.374189 -0.927353 -0.938277 0.345886 219.366 96.1372)" fill="#878787"/>
<path d="M123.145 192.719C122.237 186.084 135.682 137.953 143.477 111.414C144.135 109.173 146.188 107.655 148.523 107.655H178.732C184.609 107.655 186.079 115.819 180.571 117.869L168.107 122.508C163.63 124.173 163.498 130.457 167.901 132.309L178.532 136.782C180.932 137.791 182.235 140.401 181.601 142.926L169.005 193.09C168.468 195.229 166.665 196.813 164.468 197.013C149.126 198.414 124.024 199.141 123.145 192.719Z" fill="#595959"/>
<path d="M141.043 133.661C128.845 135.948 109.649 147.951 101.576 153.666L87.8225 155.095V199.678C91.2111 198.249 100.021 195.905 108.154 197.963C116.287 200.021 128.685 198.82 133.868 197.963L126.094 195.391C126.692 188.818 128.187 175.672 129.383 175.672C130.579 175.672 143.834 158.144 150.312 149.38C163.568 146.236 190.258 138.463 190.975 132.518C191.872 125.088 181.707 127.374 172.438 129.089C163.169 130.804 156.292 130.804 141.043 133.661Z" fill="white"/>
<path d="M183.799 157.382C182.105 157.477 178.418 157.782 177.222 158.239C175.727 158.81 171.541 155.381 167.355 158.239C163.169 161.097 161.076 161.097 160.777 164.812C160.607 166.92 165.637 169.029 170.184 170.406L167.355 171.099C155.096 168.527 153.9 174.243 153.302 175.672C152.704 177.101 154.199 181.959 163.767 183.388C173.335 184.817 179.016 179.673 181.108 177.387C182.454 175.917 181.445 172.382 180.376 169.863C182.668 167.741 185.244 163.841 184.696 157.382H183.799Z" fill="white"/>
<path d="M174.233 192.247C178.539 189.046 175.23 184.054 173.037 181.958C158.984 183.102 162.274 185.959 160.779 187.96C159.284 189.96 161.676 192.247 162.274 193.676C162.872 195.105 168.851 196.248 174.233 192.247Z" fill="white"/>
<path d="M179.314 152.524C180.51 151.838 183.4 155.477 184.696 157.382L177.819 157.954L179.314 152.524Z" fill="#B8B8B8"/>
<rect width="69" height="16" rx="4.97954" transform="matrix(-1 0 0 1 223 84)" fill="white"/>
<circle cx="100" cy="306" r="10" fill="#595959"/>
<circle cx="464" cy="38" r="10" fill="#3E3E3E"/>
<g filter="url(#filter1_d_203_1307)">
<rect x="146" y="390.167" width="119.704" height="119.704" rx="11" fill="#9B9B9B"/>
<rect x="147" y="391.167" width="117.704" height="117.704" rx="10" stroke="white" stroke-width="2"/>
</g>
<path d="M189.094 438.004V458.399C180.806 455.501 173.771 453.053 169.941 451.742V430.867L189.094 438.004Z" fill="#404040"/>
<path d="M210.64 445.636V489.214L210.136 489.522L189.094 481.586V438.231L189.413 438.049L210.47 445.739L210.64 445.636Z" fill="#5D7852"/>
<path d="M241.763 447.626V469.991L234.202 474.825L234.179 474.843L226.202 479.946V457.18L241.763 447.626Z" fill="#E3E3E3"/>
<path d="M241.764 425.983V426.199L225.94 436.013L210.417 430.255L205.852 428.561L189.703 438.049L189.391 437.933L169.941 430.649V430.495L170.893 429.892L189.391 418.144L201.398 410.517L210.417 413.971L225.94 419.921L235.685 423.655L241.764 425.983Z" fill="#7D7D7E"/>
<path d="M226.202 435.741L210.306 445.131L210.136 445.232L189.094 437.727L205.631 428.473L210.306 430.125L226.202 435.741Z" fill="#EDF0EC"/>
<path d="M189.094 458.994V481.143L186.355 480.099L169.941 473.856V452.414C173.771 453.71 180.806 456.13 189.094 458.994Z" fill="#83987B"/>
<path d="M241.763 426.079V447.619L226.202 457.202V436.001L241.763 426.079Z" fill="#666666"/>
<path d="M226.202 435.655V479.724L210.64 489.522V466.279L210.713 466.238L210.786 466.192C210.738 466.175 210.689 466.158 210.64 466.141V445.398L226.202 435.655Z" fill="#C6D0C2"/>
<g filter="url(#filter2_d_203_1307)">
<rect x="466.808" y="134" width="79.0049" height="79.0049" rx="11" fill="#9B9B9B"/>
<rect x="467.492" y="134.684" width="77.6376" height="77.6376" rx="10.3163" stroke="white" stroke-width="1.36735"/>
</g>
<path d="M519.331 178.849C519.035 178.378 517.089 176.006 516.153 174.879L516.175 173.869L512.454 175.69C513.668 176.4 516.144 177.833 516.341 177.892C516.539 177.951 518.155 182.52 518.939 184.797L520.123 184.619C519.983 182.892 519.627 179.32 519.331 178.849Z" fill="#878787"/>
<path d="M528.918 176.625C528.495 175.757 526.453 172.862 525.486 171.523L525.036 171.706L516.777 170.826C516.853 171.156 517.323 171.886 518.589 172.167C520.173 172.518 522.993 174.403 523.49 174.98C523.888 175.442 525.255 177.526 525.889 178.51C526.414 179.654 527.574 182.087 528.021 182.668C528.467 183.249 529.84 182.562 530.471 182.146C530.13 180.667 529.342 177.492 528.918 176.625Z" fill="white"/>
<path d="M521.892 175.974C521.831 175.615 519.17 171.921 518.903 171.688C517.076 171.793 513.39 172.007 513.261 172.025L509.681 176.898C511.518 177.037 514.959 175.771 516.449 175.121C517.027 175.909 518.258 177.583 518.554 177.975C518.925 178.464 519.206 182.829 519.498 185.227C519.791 187.626 521.791 187.28 522.091 187.072C522.392 186.864 522.188 184.473 522.329 183.348C522.47 182.224 521.953 176.333 521.892 175.974Z" fill="#B8B8B8"/>
<path d="M501.112 167.813C499.547 167.596 488.672 168.221 483.43 168.561L487.542 178.65C489.533 178.408 493.855 177.856 495.217 177.574C496.92 177.223 497.86 179.107 499.532 180.051C501.205 180.995 507.081 181.509 509.523 181.497C511.965 181.486 516.206 185.148 518.726 183.222C521.247 181.296 519.649 179.167 519.292 178.713C518.936 178.26 513.848 177.467 512.601 177.462C511.603 177.458 510.942 176.94 510.737 176.682C511.064 176.149 511.874 174.9 512.502 174.165C513.286 173.247 518.436 171.875 519.116 172.068C519.66 172.223 523.76 172.157 525.742 172.105C528.029 172.414 533.099 172.88 535.085 172.276C537.071 171.672 536.672 170.659 536.225 170.228C532.772 169.411 525.605 167.746 524.56 167.625C523.253 167.473 516.587 166.81 515.566 166.413C514.546 166.017 503.069 168.085 501.112 167.813Z" fill="white"/>
<rect x="498.885" y="164.051" width="11.3733" height="6.49904" rx="3.24952" fill="#4B4B4B"/>
<rect x="489.137" y="170.55" width="5.19923" height="9.09865" rx="2.59962" fill="#FDB80A"/>
<g filter="url(#filter3_f_203_1307)">
<ellipse rx="7.40061" ry="7.07378" transform="matrix(0.999933 -0.0115529 0.0126453 0.99992 499.801 167.489)" fill="white" fill-opacity="0.3"/>
</g>
<ellipse rx="5.55077" ry="5.30564" transform="matrix(0.999933 -0.011553 0.0126452 0.99992 499.922 167.606)" fill="white" fill-opacity="0.3"/>
<ellipse rx="3.62639" ry="3.46624" transform="matrix(0.999933 -0.0115529 0.0126453 0.99992 499.638 167.332)" fill="white" fill-opacity="0.65"/>
<g filter="url(#filter4_f_203_1307)">
<ellipse rx="7.40061" ry="7.07378" transform="matrix(0.999933 -0.0115529 0.0126453 0.99992 484.33 167.202)" fill="white" fill-opacity="0.3"/>
</g>
<ellipse rx="5.55077" ry="5.30564" transform="matrix(0.999933 -0.011553 0.0126452 0.99992 484.451 167.319)" fill="white" fill-opacity="0.3"/>
<ellipse rx="3.62639" ry="3.46624" transform="matrix(0.999933 -0.0115529 0.0126453 0.99992 484.166 167.046)" fill="white" fill-opacity="0.65"/>
<path d="M442.5 559L456.789 583.75H428.211L442.5 559Z" fill="#9B9B9B"/>
<circle cx="476.5" cy="359.5" r="58" fill="#494949" stroke="white"/>
<path d="M476.276 362.191C476.276 361.711 477.076 356.39 477.476 353.789L501.483 373.294L496.081 387.698C489.48 379.396 476.276 362.671 476.276 362.191Z" fill="#AECFF7"/>
<path d="M480.177 377.795L466.074 356.19L458.272 354.037L467.274 386.798L480.177 377.795Z" fill="#AECFF7"/>
<path d="M496.403 384.746C496.979 380.344 489.158 350.542 483.735 330.964C482.52 326.58 478.523 323.564 473.974 323.564H448.227C442.61 323.564 438.057 328.118 438.057 333.734V336.045C438.057 341.419 442.413 345.776 447.787 345.776C452.286 345.776 456.199 348.86 457.249 353.235L463.828 380.649C464.826 384.806 468.313 387.922 472.579 388.205C482.9 388.889 495.88 388.741 496.403 384.746Z" stroke="white" stroke-width="3.39" stroke-dasharray="2.26 2.26"/>
<path d="M457.79 355.836C456.968 355.342 454.981 357.96 454.09 359.33L458.817 359.741L457.79 355.836Z" fill="#B8B8B8"/>
<path d="M461.284 384.407C458.324 382.104 460.599 378.514 462.106 377.007C471.767 377.829 469.506 379.885 470.534 381.323C471.561 382.762 469.917 384.407 469.506 385.434C469.095 386.462 464.984 387.284 461.284 384.407Z" fill="#B8B8B8"/>
<path d="M484.101 342.269C492.487 343.913 505.683 352.546 511.233 356.657L520.688 357.685V389.751C518.359 388.723 512.302 387.038 506.711 388.518C501.12 389.997 492.597 389.134 489.034 388.518L494.378 386.668C493.967 381.94 492.939 372.485 492.117 372.485C491.295 372.485 482.182 359.878 477.729 353.574C468.616 351.313 450.267 345.722 449.774 341.447C449.157 336.103 456.146 337.747 462.518 338.98C468.89 340.214 473.618 340.214 484.101 342.269Z" fill="white"/>
<path d="M454.707 359.33C455.872 359.398 458.407 359.617 459.229 359.946C460.257 360.357 463.135 357.891 466.012 359.946C468.89 362.002 470.329 362.002 470.534 364.674C470.651 366.19 467.193 367.707 464.067 368.697L466.012 369.196C474.44 367.346 475.262 371.457 475.673 372.485C476.084 373.512 475.056 377.007 468.479 378.035C461.901 379.062 457.996 375.362 456.557 373.718C455.632 372.661 456.326 370.119 457.061 368.307C455.485 366.781 453.714 363.976 454.091 359.33H454.707Z" fill="white"/>
<path d="M504.557 510.364C500.423 510.364 489.242 509.676 488.138 502.262C486.838 493.529 494.989 488.234 501.545 483.975C507.488 480.114 507.104 467.789 507.1 467.664L509.781 467.565C509.781 468.133 510.228 481.522 503.019 486.205C496.794 490.249 489.747 494.83 490.793 501.868C491.601 507.289 501.996 507.897 505.938 507.678L506.09 510.333C505.947 510.337 505.397 510.364 504.557 510.364Z" fill="#CECECE"/>
<path opacity="0.24" d="M499.744 506.766C498.054 507.571 496.213 508.107 494.743 509.273C493.862 509.976 493.151 510.87 492.665 511.887C492.179 512.904 491.93 514.018 491.936 515.145C491.907 515.856 492.111 516.556 492.517 517.139C493.232 518.032 494.51 518.162 495.646 518.229C529.026 520.114 562.485 520.192 595.874 518.461C597.394 518.385 598.944 518.296 600.343 517.724C601.742 517.152 603.024 516.008 603.319 514.515C603.82 511.999 601.532 509.841 599.36 508.482C597.188 507.124 594.641 505.667 594.14 503.155C593.747 501.198 594.641 498.776 593.188 497.408C592.791 497.072 592.337 496.809 591.848 496.631C576.492 490.053 559.721 485.557 543.137 487.648C536.433 488.493 529.918 490.401 523.608 492.765C520.399 493.967 517.239 495.29 514.102 496.667C511.702 497.717 508.605 498.526 506.854 500.505C504.655 503.017 502.876 505.274 499.744 506.766Z" fill="#CECECE"/>
<path d="M585.261 452H512.914C509.73 452 507.149 454.581 507.149 457.765V506.145C507.149 509.329 509.73 511.91 512.914 511.91H585.261C588.444 511.91 591.025 509.329 591.025 506.145V457.765C591.025 454.581 588.444 452 585.261 452Z" fill="#CECECE"/>
<path d="M583.477 454.963H514.428C511.511 454.963 509.146 457.328 509.146 460.245V502.664C509.146 505.581 511.511 507.946 514.428 507.946H583.477C586.395 507.946 588.76 505.581 588.76 502.664V460.245C588.76 457.328 586.395 454.963 583.477 454.963Z" fill="white"/>
<path d="M591.191 509.001H505.982C503.593 509.001 501.656 510.938 501.656 513.327C501.656 515.716 503.593 517.653 505.982 517.653H591.191C593.58 517.653 595.517 515.716 595.517 513.327C595.517 510.938 593.58 509.001 591.191 509.001Z" fill="#CECECE"/>
<path d="M592.844 509.64H504.329C502.853 509.64 501.656 510.836 501.656 512.312C501.656 513.788 502.853 514.985 504.329 514.985H592.844C594.32 514.985 595.517 513.788 595.517 512.312C595.517 510.836 594.32 509.64 592.844 509.64Z" fill="url(#paint0_linear_203_1307)"/>
<path d="M513.767 489.946H517.597V506.422H513.767V489.946Z" fill="#CECECE"/>
<path d="M519.089 494.035H522.919V506.422H519.089V494.035Z" fill="#CECECE"/>
<path d="M524.457 482.509H528.286V506.422H524.457V482.509Z" fill="#CECECE"/>
<path d="M529.824 487.309H533.654V506.423H529.824V487.309Z" fill="#CECECE"/>
<path d="M535.191 491.143H539.021V506.422H535.191V491.143Z" fill="#CECECE"/>
<path d="M540.558 483.108H544.388V506.422H540.558V483.108Z" fill="#CECECE"/>
<path d="M545.925 494.035H549.755V506.422H545.925V494.035Z" fill="#CECECE"/>
<path d="M551.292 485.262H555.122V506.422H551.292V485.262Z" fill="#CECECE"/>
<path d="M556.66 489.597H560.49V506.422H556.66V489.597Z" fill="#CECECE"/>
<path d="M562.027 482.036H565.857V506.422H562.027V482.036Z" fill="#CECECE"/>
<path d="M567.394 487.894H571.224V506.418H567.394V487.894Z" fill="#CECECE"/>
<path d="M572.761 481.298H576.591V506.423H572.761V481.298Z" fill="#CECECE"/>
<path d="M578.128 475.547H581.958V506.423H578.128V475.547Z" fill="#CECECE"/>
<path d="M512.806 460.321H527.451V463.15H512.806V460.321Z" fill="#CECECE"/>
<path d="M529.533 460.321H533.162V463.15H529.533V460.321Z" fill="#CECECE"/>
<path d="M512.99 469.183H516.618V472.012H512.99V469.183Z" fill="#CECECE"/>
<path d="M512.806 464.732H527.451V467.561H512.806V464.732Z" fill="#CECECE"/>
<path d="M536.773 512.165H559.489V514.788H536.773V512.165Z" fill="#CECECE"/>
<path d="M389.559 87.7893L383.526 81.7561C383.254 81.4838 382.885 81.3325 382.497 81.3325H381.511C383.181 79.1964 384.174 76.5096 384.174 73.5868C384.174 66.6338 378.54 61 371.587 61C364.634 61 359 66.6338 359 73.5868C359 80.5398 364.634 86.1736 371.587 86.1736C374.51 86.1736 377.196 85.1812 379.333 83.511V84.4974C379.333 84.8847 379.484 85.2538 379.756 85.5261L385.789 91.5593C386.358 92.1282 387.278 92.1282 387.841 91.5593L389.553 89.8468C390.122 89.278 390.122 88.3582 389.559 87.7893ZM371.587 81.3325C367.309 81.3325 363.841 77.8712 363.841 73.5868C363.841 69.3085 367.302 65.8411 371.587 65.8411C375.865 65.8411 379.333 69.3025 379.333 73.5868C379.333 77.8651 375.871 81.3325 371.587 81.3325Z" fill="black"/>
<path d="M19.8335 380H61.0002" stroke="#494949" stroke-width="7.66667" stroke-linecap="round" stroke-linejoin="round"/>
<path d="M19.8335 399H61.0002" stroke="#494949" stroke-width="7.66667" stroke-linecap="round" stroke-linejoin="round"/>
<path d="M19.8335 418H61.0002" stroke="#494949" stroke-width="7.66667" stroke-linecap="round" stroke-linejoin="round"/>
<path d="M4 380H4.03167" stroke="#494949" stroke-width="7.66667" stroke-linecap="round" stroke-linejoin="round"/>
<path d="M4 399H4.03167" stroke="#494949" stroke-width="7.66667" stroke-linecap="round" stroke-linejoin="round"/>
<path d="M4 418H4.03167" stroke="#494949" stroke-width="7.66667" stroke-linecap="round" stroke-linejoin="round"/>
<defs>
<filter id="filter0_d_203_1307" x="25" y="15" width="260" height="260" filterUnits="userSpaceOnUse" color-interpolation-filters="sRGB">
<feFlood flood-opacity="0" result="BackgroundImageFix"/>
<feColorMatrix in="SourceAlpha" type="matrix" values="0 0 0 0 0 0 0 0 0 0 0 0 0 0 0 0 0 0 127 0" result="hardAlpha"/>
<feOffset dy="4"/>
<feGaussianBlur stdDeviation="4"/>
<feComposite in2="hardAlpha" operator="out"/>
<feColorMatrix type="matrix" values="0 0 0 0 0 0 0 0 0 0 0 0 0 0 0 0 0 0 0.1 0"/>
<feBlend mode="normal" in2="BackgroundImageFix" result="effect1_dropShadow_203_1307"/>
<feBlend mode="normal" in="SourceGraphic" in2="effect1_dropShadow_203_1307" result="shape"/>
</filter>
<filter id="filter1_d_203_1307" x="135.745" y="382.647" width="140.215" height="140.215" filterUnits="userSpaceOnUse" color-interpolation-filters="sRGB">
<feFlood flood-opacity="0" result="BackgroundImageFix"/>
<feColorMatrix in="SourceAlpha" type="matrix" values="0 0 0 0 0 0 0 0 0 0 0 0 0 0 0 0 0 0 127 0" result="hardAlpha"/>
<feOffset dy="2.73469"/>
<feGaussianBlur stdDeviation="5.12755"/>
<feComposite in2="hardAlpha" operator="out"/>
<feColorMatrix type="matrix" values="0 0 0 0 0 0 0 0 0 0 0 0 0 0 0 0 0 0 0.1 0"/>
<feBlend mode="normal" in2="BackgroundImageFix" result="effect1_dropShadow_203_1307"/>
<feBlend mode="normal" in="SourceGraphic" in2="effect1_dropShadow_203_1307" result="shape"/>
</filter>
<filter id="filter2_d_203_1307" x="456.553" y="126.48" width="99.5151" height="99.5151" filterUnits="userSpaceOnUse" color-interpolation-filters="sRGB">
<feFlood flood-opacity="0" result="BackgroundImageFix"/>
<feColorMatrix in="SourceAlpha" type="matrix" values="0 0 0 0 0 0 0 0 0 0 0 0 0 0 0 0 0 0 127 0" result="hardAlpha"/>
<feOffset dy="2.73469"/>
<feGaussianBlur stdDeviation="5.12755"/>
<feComposite in2="hardAlpha" operator="out"/>
<feColorMatrix type="matrix" values="0 0 0 0 0 0 0 0 0 0 0 0 0 0 0 0 0 0 0.1 0"/>
<feBlend mode="normal" in2="BackgroundImageFix" result="effect1_dropShadow_203_1307"/>
<feBlend mode="normal" in="SourceGraphic" in2="effect1_dropShadow_203_1307" result="shape"/>
</filter>
<filter id="filter3_f_203_1307" x="488.973" y="156.988" width="21.6563" height="21.0025" filterUnits="userSpaceOnUse" color-interpolation-filters="sRGB">
<feFlood flood-opacity="0" result="BackgroundImageFix"/>
<feBlend mode="normal" in="SourceGraphic" in2="BackgroundImageFix" result="shape"/>
<feGaussianBlur stdDeviation="1.71376" result="effect1_foregroundBlur_203_1307"/>
</filter>
<filter id="filter4_f_203_1307" x="473.502" y="156.701" width="21.6563" height="21.0025" filterUnits="userSpaceOnUse" color-interpolation-filters="sRGB">
<feFlood flood-opacity="0" result="BackgroundImageFix"/>
<feBlend mode="normal" in="SourceGraphic" in2="BackgroundImageFix" result="shape"/>
<feGaussianBlur stdDeviation="1.71376" result="effect1_foregroundBlur_203_1307"/>
</filter>
<linearGradient id="paint0_linear_203_1307" x1="548.589" y1="521.956" x2="548.589" y2="500.157" gradientUnits="userSpaceOnUse">
<stop stop-opacity="0"/>
<stop offset="0.95"/>
</linearGradient>
</defs>
</svg>
