<svg width="33" height="33" viewBox="0 0 33 33" fill="none" xmlns="http://www.w3.org/2000/svg">
<path d="M11.55 23.375L16.5 18.425L21.45 23.375L23.375 21.45L18.425 16.5L23.375 11.55L21.45 9.625L16.5 14.575L11.55 9.625L9.625 11.55L14.575 16.5L9.625 21.45L11.55 23.375ZM16.5 30.25C14.5979 30.25 12.8104 29.8888 11.1375 29.1665C9.46458 28.4442 8.00938 27.4647 6.77188 26.2281C5.53438 24.9906 4.55492 23.5354 3.8335 21.8625C3.11208 20.1896 2.75092 18.4021 2.75 16.5C2.75 14.5979 3.11117 12.8104 3.8335 11.1375C4.55583 9.46458 5.53529 8.00938 6.77188 6.77188C8.00938 5.53438 9.46458 4.55492 11.1375 3.8335C12.8104 3.11208 14.5979 2.75092 16.5 2.75C18.4021 2.75 20.1896 3.11117 21.8625 3.8335C23.5354 4.55583 24.9906 5.53529 26.2281 6.77188C27.4656 8.00938 28.4455 9.46458 29.1679 11.1375C29.8902 12.8104 30.2509 14.5979 30.25 16.5C30.25 18.4021 29.8888 20.1896 29.1665 21.8625C28.4442 23.5354 27.4647 24.9906 26.2281 26.2281C24.9906 27.4656 23.5354 28.4455 21.8625 29.1679C20.1896 29.8902 18.4021 30.2509 16.5 30.25Z" fill="#CACACA"/>
</svg>
